<svg xmlns="http://www.w3.org/2000/svg" xmlns:xlink="http://www.w3.org/1999/xlink" width="0" height="0" style="display:none;"><symbol viewBox="0 0 24 24" id="svgtofont-acorn">
<path id="primary" d="M13,3a4.9,4.9,0,0,0-1,3" style="fill: none; stroke: rgb(0, 0, 0); stroke-linecap: round; stroke-linejoin: round; stroke-width: 1.5;"></path>
<path id="primary-2" data-name="primary" d="M18,10H6A1,1,0,0,1,5,9H5A3,3,0,0,1,8,6h8a3,3,0,0,1,3,3h0A1,1,0,0,1,18,10Zm0,0-.45,4.1a8.36,8.36,0,0,1-5.18,6.83h0a1,1,0,0,1-.74,0h0A8.36,8.36,0,0,1,6.45,14.1L6,10H18Z" style="fill: none; stroke: rgb(0, 0, 0); stroke-linecap: round; stroke-linejoin: round; stroke-width: 1.5;">
</path>
</symbol><symbol viewBox="0 0 24 24" id="svgtofont-fire"><path id="primary" d="M12,21c-3.9,0-7-2-7-7s5-5,5-11c3,2,4.37,4.1,5,8a5,5,0,0,0,2-3c1,1,2,4,2,6C19,17.14,17.72,21,12,21Z" style="fill: none; stroke: rgb(0, 0, 0); stroke-linecap: round; stroke-linejoin: round; stroke-width: 1.5;"></path></symbol><symbol viewBox="0 0 24 24" id="svgtofont-forest"><path id="primary" d="M3,20H21m-2-8V9a2,2,0,0,0-2-2h0a2,2,0,0,0-2,2v3a2,2,0,0,0,2,2h0A2,2,0,0,0,19,12Zm-2,2v6m-6-9V7A3,3,0,0,0,8,4H8A3,3,0,0,0,5,7v4a3,3,0,0,0,3,3H8A3,3,0,0,0,11,11ZM8,14v6" style="fill: none; stroke: rgb(0, 0, 0); stroke-linecap: round; stroke-linejoin: round; stroke-width: 1.5;"></path></symbol><symbol viewBox="0 0 24 24" id="svgtofont-home"><polyline id="primary" points="21 12 12 3 3 12" style="fill: none; stroke: rgb(0, 0, 0); stroke-linecap: round; stroke-linejoin: round; stroke-width: 1.5;"></polyline><path id="primary-2" data-name="primary" d="M19,10V20.3a.77.77,0,0,1-.83.7H14.3V14.1H9.7V21H5.83A.77.77,0,0,1,5,20.3V10" style="fill: none; stroke: rgb(0, 0, 0); stroke-linecap: round; stroke-linejoin: round; stroke-width: 1.5;"></path></symbol></svg>