<svg xmlns="http://www.w3.org/2000/svg" xmlns:xlink="http://www.w3.org/1999/xlink" width="0" height="0" style="display:none;"><symbol viewBox="0 0 24 24" id="svgtofont-acorn">
<path id="primary" d="M13,3a4.9,4.9,0,0,0-1,3" style="fill: none; stroke: rgb(0, 0, 0); stroke-linecap: round; stroke-linejoin: round; stroke-width: 1.5;"></path>
<path id="primary-2" data-name="primary" d="M18,10H6A1,1,0,0,1,5,9H5A3,3,0,0,1,8,6h8a3,3,0,0,1,3,3h0A1,1,0,0,1,18,10Zm0,0-.45,4.1a8.36,8.36,0,0,1-5.18,6.83h0a1,1,0,0,1-.74,0h0A8.36,8.36,0,0,1,6.45,14.1L6,10H18Z" style="fill: none; stroke: rgb(0, 0, 0); stroke-linecap: round; stroke-linejoin: round; stroke-width: 1.5;">
</path>
</symbol><symbol viewBox="0 0 1024 1024" id="svgtofont-contact"><defs><style type="text/css">@font-face { font-family: feedback-iconfont; src: url("//at.alicdn.com/t/font_1031158_u69w8yhxdu.woff2?t=1630033759944") format("woff2"), url("//at.alicdn.com/t/font_1031158_u69w8yhxdu.woff?t=1630033759944") format("woff"), url("//at.alicdn.com/t/font_1031158_u69w8yhxdu.ttf?t=1630033759944") format("truetype"); }
</style></defs><path d="M89.53 348.834h117.238c14.076 0 25.528-11.877 25.528-26.472 0-14.598-11.452-26.476-25.528-26.476H89.53c-14.077 0-25.53 11.878-25.53 26.476 0 14.595 11.452 26.472 25.53 26.472z m0 190.186h117.238c14.076 0 25.528-11.876 25.528-26.472 0-7.071-2.655-13.72-7.477-18.719-4.822-5-11.233-7.755-18.051-7.755H89.53c-14.077 0-25.53 11.877-25.53 26.474 0 14.596 11.452 26.472 25.53 26.472z m142.766 163.015c0-7.075-2.655-13.725-7.478-18.723-4.82-5-11.232-7.757-18.05-7.757H89.53c-14.077 0-25.53 11.88-25.53 26.48 0 14.595 11.453 26.467 25.53 26.467h117.238c14.076 0.001 25.528-11.871 25.528-26.467z m81.8 26.864l-3.446 8.366h56.9l1.706-3.219c26.67-50.262 89.357-87.039 152.408-89.435h6.158c2.324 0 4.632 0 6.885 0.005 63.083 2.397 125.77 39.17 152.444 89.43l1.707 3.22h56.903l-3.448-8.367c-10.361-25.148-28.44-49.744-52.28-71.126-18.761-16.826-40.99-31.62-64.38-42.86 23.03-14.952 42.6-35.116 56.676-58.417 16.725-27.68 25.565-59.479 25.565-91.956 0-99.293-80.781-180.071-180.072-180.071-99.297 0-180.08 80.78-180.08 180.07 0 32.546 8.875 64.402 25.668 92.122 14.138 23.346 33.79 43.526 56.909 58.464-23.306 11.26-45.44 26.04-64.112 42.815-23.761 21.345-41.781 45.883-52.11 70.96z m213.725-392.062c70.412 0 127.697 57.286 127.697 127.702 0 70.412-57.284 127.696-127.697 127.696-70.415 0-127.702-57.283-127.702-127.696 0-70.416 57.287-127.702 127.702-127.702zM832.045 64.001V64c53.108 0 96.314 43.205 96.314 96.309v703.376c0 53.11-43.206 96.315-96.314 96.315H223.59c-53.108 0-96.313-43.205-96.313-96.315v-71.024h51.677v61.313c0 36.504 19.294 55.797 55.795 55.797h587.085c36.5 0 55.79-19.295 55.79-55.797v-682.9c0-36.498-19.293-55.79-55.79-55.79H234.75c-36.502 0-55.795 19.293-55.795 55.79v61.322H127.28v-72.083c0-53.109 43.204-96.312 96.312-96.312h608.453z" p-id="1069"></path></symbol><symbol viewBox="0 0 24 24" id="svgtofont-fire"><path id="primary" d="M12,21c-3.9,0-7-2-7-7s5-5,5-11c3,2,4.37,4.1,5,8a5,5,0,0,0,2-3c1,1,2,4,2,6C19,17.14,17.72,21,12,21Z" style="fill: none; stroke: rgb(0, 0, 0); stroke-linecap: round; stroke-linejoin: round; stroke-width: 1.5;"></path></symbol><symbol viewBox="0 0 24 24" id="svgtofont-forest"><path id="primary" d="M3,20H21m-2-8V9a2,2,0,0,0-2-2h0a2,2,0,0,0-2,2v3a2,2,0,0,0,2,2h0A2,2,0,0,0,19,12Zm-2,2v6m-6-9V7A3,3,0,0,0,8,4H8A3,3,0,0,0,5,7v4a3,3,0,0,0,3,3H8A3,3,0,0,0,11,11ZM8,14v6" style="fill: none; stroke: rgb(0, 0, 0); stroke-linecap: round; stroke-linejoin: round; stroke-width: 1.5;"></path></symbol><symbol viewBox="0 0 24 24" id="svgtofont-home"><polyline id="primary" points="21 12 12 3 3 12" style="fill: none; stroke: rgb(0, 0, 0); stroke-linecap: round; stroke-linejoin: round; stroke-width: 1.5;"></polyline><path id="primary-2" data-name="primary" d="M19,10V20.3a.77.77,0,0,1-.83.7H14.3V14.1H9.7V21H5.83A.77.77,0,0,1,5,20.3V10" style="fill: none; stroke: rgb(0, 0, 0); stroke-linecap: round; stroke-linejoin: round; stroke-width: 1.5;"></path></symbol><symbol viewBox="0 0 1024 1024" id="svgtofont-session"><defs><style type="text/css">@font-face { font-family: feedback-iconfont; src: url("//at.alicdn.com/t/font_1031158_u69w8yhxdu.woff2?t=1630033759944") format("woff2"), url("//at.alicdn.com/t/font_1031158_u69w8yhxdu.woff?t=1630033759944") format("woff"), url("//at.alicdn.com/t/font_1031158_u69w8yhxdu.ttf?t=1630033759944") format("truetype"); }
</style></defs><path d="M541.76 311.637L283.947 54.72c-9.856 4.907-19.542 10.048-28.971 15.51-37.973 21.738-73.75 48.597-106.07 80.789-13.973 13.845-26.666 28.373-38.506 43.221-29.12 36.523-52.523 76.096-70.165 117.483 0 0 485.973-2.56 501.525-0.086zM391.723 348.16H27.093c-3.52 10.197-6.634 20.715-9.536 31.296C6.187 421.504 0 465.686 0 511.36c0 19.52 1.216 38.741 3.435 57.643 5.248 46.378 16.853 90.773 33.813 132.416 0 0 341.717-344.171 354.475-353.259zM970.24 282.432c-4.843-9.664-10.005-19.328-15.488-28.821-21.888-37.718-48.768-73.408-81.173-105.622-13.846-13.781-28.374-26.56-43.35-38.378-36.672-28.992-76.33-52.331-117.866-69.867 0 0 2.581 484.139 0 499.563L970.24 282.432zM676.565 390.336V27.072c-10.304-3.477-20.864-6.656-31.445-9.6C602.965 6.208 558.592 0 512.725 0c-19.605 0-38.869 1.216-57.877 3.413-46.485 5.248-91.05 16.854-132.97 33.643 0 0 345.407 340.608 354.687 353.28zM311.147 482.09L53.419 739.009c4.778 9.835 10.048 19.37 15.488 28.885 21.781 37.782 48.746 73.472 81.173 105.707 13.824 13.803 28.373 26.475 43.35 38.379 36.671 29.056 76.245 52.288 117.866 69.802 0-0.021-2.645-484.16-0.15-499.69zM479.744 714.283L737.621 971.2a612.547 612.547 0 0 0 28.992-15.51c37.782-21.695 73.536-48.49 106.006-80.831 13.781-13.76 26.538-28.203 38.485-43.158 29.056-36.544 52.523-75.989 70.101-117.461-0.042 0-485.888 2.645-501.461 0.043zM1020.544 455.19c-5.312-46.315-16.832-90.753-33.77-132.46 0 0-341.782 344.15-354.56 353.345h364.629a553.476 553.476 0 0 0 9.493-31.339c11.435-42.09 17.664-86.144 17.664-131.84 0-19.541-1.259-38.784-3.456-57.707zM347.456 633.6v363.307c10.347 3.498 20.864 6.656 31.424 9.493 42.219 11.456 86.528 17.6 132.395 17.6 19.541 0 38.848-1.216 57.77-3.435 46.55-5.269 91.051-16.725 132.907-33.6 0.064 0-345.301-340.565-354.496-353.365z" p-id="919"></path></symbol></svg>