<svg t="1657177808552" class="icon" viewBox="0 0 1024 1024" version="1.1" xmlns="http://www.w3.org/2000/svg" p-id="1068" xmlns:xlink="http://www.w3.org/1999/xlink" width="160" height="160"><defs><style type="text/css">@font-face { font-family: feedback-iconfont; src: url("//at.alicdn.com/t/font_1031158_u69w8yhxdu.woff2?t=1630033759944") format("woff2"), url("//at.alicdn.com/t/font_1031158_u69w8yhxdu.woff?t=1630033759944") format("woff"), url("//at.alicdn.com/t/font_1031158_u69w8yhxdu.ttf?t=1630033759944") format("truetype"); }
</style></defs><path d="M89.53 348.834h117.238c14.076 0 25.528-11.877 25.528-26.472 0-14.598-11.452-26.476-25.528-26.476H89.53c-14.077 0-25.53 11.878-25.53 26.476 0 14.595 11.452 26.472 25.53 26.472z m0 190.186h117.238c14.076 0 25.528-11.876 25.528-26.472 0-7.071-2.655-13.72-7.477-18.719-4.822-5-11.233-7.755-18.051-7.755H89.53c-14.077 0-25.53 11.877-25.53 26.474 0 14.596 11.452 26.472 25.53 26.472z m142.766 163.015c0-7.075-2.655-13.725-7.478-18.723-4.82-5-11.232-7.757-18.05-7.757H89.53c-14.077 0-25.53 11.88-25.53 26.48 0 14.595 11.453 26.467 25.53 26.467h117.238c14.076 0.001 25.528-11.871 25.528-26.467z m81.8 26.864l-3.446 8.366h56.9l1.706-3.219c26.67-50.262 89.357-87.039 152.408-89.435h6.158c2.324 0 4.632 0 6.885 0.005 63.083 2.397 125.77 39.17 152.444 89.43l1.707 3.22h56.903l-3.448-8.367c-10.361-25.148-28.44-49.744-52.28-71.126-18.761-16.826-40.99-31.62-64.38-42.86 23.03-14.952 42.6-35.116 56.676-58.417 16.725-27.68 25.565-59.479 25.565-91.956 0-99.293-80.781-180.071-180.072-180.071-99.297 0-180.08 80.78-180.08 180.07 0 32.546 8.875 64.402 25.668 92.122 14.138 23.346 33.79 43.526 56.909 58.464-23.306 11.26-45.44 26.04-64.112 42.815-23.761 21.345-41.781 45.883-52.11 70.96z m213.725-392.062c70.412 0 127.697 57.286 127.697 127.702 0 70.412-57.284 127.696-127.697 127.696-70.415 0-127.702-57.283-127.702-127.696 0-70.416 57.287-127.702 127.702-127.702zM832.045 64.001V64c53.108 0 96.314 43.205 96.314 96.309v703.376c0 53.11-43.206 96.315-96.314 96.315H223.59c-53.108 0-96.313-43.205-96.313-96.315v-71.024h51.677v61.313c0 36.504 19.294 55.797 55.795 55.797h587.085c36.5 0 55.79-19.295 55.79-55.797v-682.9c0-36.498-19.293-55.79-55.79-55.79H234.75c-36.502 0-55.795 19.293-55.795 55.79v61.322H127.28v-72.083c0-53.109 43.204-96.312 96.312-96.312h608.453z" p-id="1069"></path></svg>