<svg t="1657185269389" class="icon" viewBox="0 0 1024 1024" version="1.1" xmlns="http://www.w3.org/2000/svg" p-id="23844" xmlns:xlink="http://www.w3.org/1999/xlink" width="160" height="160"><defs><style type="text/css">@font-face { font-family: feedback-iconfont; src: url("//at.alicdn.com/t/font_1031158_u69w8yhxdu.woff2?t=1630033759944") format("woff2"), url("//at.alicdn.com/t/font_1031158_u69w8yhxdu.woff?t=1630033759944") format("woff"), url("//at.alicdn.com/t/font_1031158_u69w8yhxdu.ttf?t=1630033759944") format("truetype"); }
</style></defs><path d="M1010.816 628.032c0-141.248-141.312-256.256-299.904-256.256-168 0-300.288 115.136-300.288 256.192 0 141.44 132.288 256.256 300.288 256.256 35.2 0 70.656-8.96 105.984-17.728l96.832 52.992-26.624-88.192c70.912-53.184 123.712-123.712 123.712-203.328zM617.984 588.8a40 40 0 1 1 0-80 40 40 0 0 1 0 80z m194.304-0.32a40 40 0 1 1 0-80 40 40 0 0 1 0 80z" p-id="23845"></path><path d="M366.272 106.88C172.224 106.88 13.184 239.168 13.184 407.168c0 97.024 52.928 176.64 141.312 238.464l-35.328 106.176 123.456-61.888c44.16 8.704 79.552 17.664 123.648 17.664 11.136 0 22.144-0.512 33.024-1.408a262.784 262.784 0 0 1-10.88-73.984c0-154.24 132.48-279.488 300.16-279.488 11.52 0 22.848 0.768 34.048 2.112-30.656-142.208-182.72-247.936-356.352-247.936zM247.68 349.184a48 48 0 1 1 0-96 48 48 0 0 1 0 96z m246.592 0a48 48 0 1 1 0-96 48 48 0 0 1 0 96z" p-id="23846"></path></svg>