<svg xmlns="http://www.w3.org/2000/svg" xmlns:xlink="http://www.w3.org/1999/xlink" width="0" height="0" style="display:none;"><symbol viewBox="0 0 24 24" id="svgtofont-acorn">
<path id="primary" d="M13,3a4.9,4.9,0,0,0-1,3" style="fill: none; stroke: rgb(0, 0, 0); stroke-linecap: round; stroke-linejoin: round; stroke-width: 1.5;"></path>
<path id="primary-2" data-name="primary" d="M18,10H6A1,1,0,0,1,5,9H5A3,3,0,0,1,8,6h8a3,3,0,0,1,3,3h0A1,1,0,0,1,18,10Zm0,0-.45,4.1a8.36,8.36,0,0,1-5.18,6.83h0a1,1,0,0,1-.74,0h0A8.36,8.36,0,0,1,6.45,14.1L6,10H18Z" style="fill: none; stroke: rgb(0, 0, 0); stroke-linecap: round; stroke-linejoin: round; stroke-width: 1.5;">
</path>
</symbol><symbol viewBox="0 0 1024 1024" id="svgtofont-contact"><defs><style type="text/css">@font-face { font-family: feedback-iconfont; src: url("//at.alicdn.com/t/font_1031158_u69w8yhxdu.woff2?t=1630033759944") format("woff2"), url("//at.alicdn.com/t/font_1031158_u69w8yhxdu.woff?t=1630033759944") format("woff"), url("//at.alicdn.com/t/font_1031158_u69w8yhxdu.ttf?t=1630033759944") format("truetype"); }
</style></defs><path d="M89.53 348.834h117.238c14.076 0 25.528-11.877 25.528-26.472 0-14.598-11.452-26.476-25.528-26.476H89.53c-14.077 0-25.53 11.878-25.53 26.476 0 14.595 11.452 26.472 25.53 26.472z m0 190.186h117.238c14.076 0 25.528-11.876 25.528-26.472 0-7.071-2.655-13.72-7.477-18.719-4.822-5-11.233-7.755-18.051-7.755H89.53c-14.077 0-25.53 11.877-25.53 26.474 0 14.596 11.452 26.472 25.53 26.472z m142.766 163.015c0-7.075-2.655-13.725-7.478-18.723-4.82-5-11.232-7.757-18.05-7.757H89.53c-14.077 0-25.53 11.88-25.53 26.48 0 14.595 11.453 26.467 25.53 26.467h117.238c14.076 0.001 25.528-11.871 25.528-26.467z m81.8 26.864l-3.446 8.366h56.9l1.706-3.219c26.67-50.262 89.357-87.039 152.408-89.435h6.158c2.324 0 4.632 0 6.885 0.005 63.083 2.397 125.77 39.17 152.444 89.43l1.707 3.22h56.903l-3.448-8.367c-10.361-25.148-28.44-49.744-52.28-71.126-18.761-16.826-40.99-31.62-64.38-42.86 23.03-14.952 42.6-35.116 56.676-58.417 16.725-27.68 25.565-59.479 25.565-91.956 0-99.293-80.781-180.071-180.072-180.071-99.297 0-180.08 80.78-180.08 180.07 0 32.546 8.875 64.402 25.668 92.122 14.138 23.346 33.79 43.526 56.909 58.464-23.306 11.26-45.44 26.04-64.112 42.815-23.761 21.345-41.781 45.883-52.11 70.96z m213.725-392.062c70.412 0 127.697 57.286 127.697 127.702 0 70.412-57.284 127.696-127.697 127.696-70.415 0-127.702-57.283-127.702-127.696 0-70.416 57.287-127.702 127.702-127.702zM832.045 64.001V64c53.108 0 96.314 43.205 96.314 96.309v703.376c0 53.11-43.206 96.315-96.314 96.315H223.59c-53.108 0-96.313-43.205-96.313-96.315v-71.024h51.677v61.313c0 36.504 19.294 55.797 55.795 55.797h587.085c36.5 0 55.79-19.295 55.79-55.797v-682.9c0-36.498-19.293-55.79-55.79-55.79H234.75c-36.502 0-55.795 19.293-55.795 55.79v61.322H127.28v-72.083c0-53.109 43.204-96.312 96.312-96.312h608.453z" p-id="1069"></path></symbol><symbol viewBox="0 0 24 24" id="svgtofont-fire"><path id="primary" d="M12,21c-3.9,0-7-2-7-7s5-5,5-11c3,2,4.37,4.1,5,8a5,5,0,0,0,2-3c1,1,2,4,2,6C19,17.14,17.72,21,12,21Z" style="fill: none; stroke: rgb(0, 0, 0); stroke-linecap: round; stroke-linejoin: round; stroke-width: 1.5;"></path></symbol><symbol viewBox="0 0 24 24" id="svgtofont-forest"><path id="primary" d="M3,20H21m-2-8V9a2,2,0,0,0-2-2h0a2,2,0,0,0-2,2v3a2,2,0,0,0,2,2h0A2,2,0,0,0,19,12Zm-2,2v6m-6-9V7A3,3,0,0,0,8,4H8A3,3,0,0,0,5,7v4a3,3,0,0,0,3,3H8A3,3,0,0,0,11,11ZM8,14v6" style="fill: none; stroke: rgb(0, 0, 0); stroke-linecap: round; stroke-linejoin: round; stroke-width: 1.5;"></path></symbol><symbol viewBox="0 0 1024 1024" id="svgtofont-guqing"><defs><style type="text/css">@font-face { font-family: feedback-iconfont; src: url("//at.alicdn.com/t/font_1031158_u69w8yhxdu.woff2?t=1630033759944") format("woff2"), url("//at.alicdn.com/t/font_1031158_u69w8yhxdu.woff?t=1630033759944") format("woff"), url("//at.alicdn.com/t/font_1031158_u69w8yhxdu.ttf?t=1630033759944") format("truetype"); }
</style></defs><path d="M903.529412 0a120.470588 120.470588 0 0 1 120.470588 120.470588v783.058824a120.470588 120.470588 0 0 1-120.470588 120.470588H120.470588a120.470588 120.470588 0 0 1-120.470588-120.470588V120.470588a120.470588 120.470588 0 0 1 120.470588-120.470588h783.058824z m-64.662588 321.987765C725.624471 149.744941 494.230588 101.797647 321.897412 215.04 149.684706 328.282353 101.737412 559.646118 214.949647 731.979294c113.242353 172.212706 344.636235 220.16 516.939294 106.947765 172.303059-113.242353 220.190118-344.636235 106.977883-516.939294zM330.089412 227.237647c165.436235-108.724706 387.824941-62.735059 496.76047 102.821647 108.815059 165.526588 62.735059 387.915294-102.821647 496.760471-165.526588 108.845176-388.005647 62.765176-496.76047-102.79153-108.815059-165.526588-62.735059-388.035765 102.821647-496.790588z m482.394353 112.097882c-103.604706-157.696-315.482353-201.487059-473.178353-97.882353-157.696 103.604706-201.517176 315.482353-97.882353 473.208471 103.604706 157.696 315.452235 201.487059 473.148235 97.882353 157.696-103.604706 201.607529-315.392 97.882353-473.208471z m-70.174118 185.705412a214.979765 214.979765 0 0 1-96.978823 181.850353 214.829176 214.829176 0 0 1-205.372236 16.956235l19.456-12.890353c56.289882 20.690824 121.374118 15.36 175.344941-20.08847A195.764706 195.764706 0 0 0 722.823529 537.871059z m-332.528941 103.996235c6.896941 28.069647 12.197647 56.621176 15.962353 85.865412l-21.202824 3.493647a674.454588 674.454588 0 0 0-14.034823-85.263059l19.275294-4.096z m7.378823-151.853176l22.889412 35.719529 50.597647-33.129411 10.932706 17.046588-50.597647 33.159529 22.829177 35.538824 40.327529-26.443294 54.603294 85.11247-17.317647 11.324236-4.547765-7.168-62.283294 40.809411 4.517647 7.168-17.468235 11.444706-54.633412-85.082353 39.032471-25.6-22.799059-35.538823-50.416941 33.008941-10.842353-17.106824 50.416941-32.978823-22.889412-35.71953 17.648941-11.565176z m90.654118 90.292706l-62.283294 40.809412 27.949176 43.550117 62.283295-40.809411-27.949177-43.550118z m-167.574588 26.533647c19.456 0.602353 36.532706 2.56 51.350588 5.872941l-4.306823 20.389647c-13.944471-3.644235-31.111529-5.692235-51.410824-6.023529l4.367059-20.239059z m255.698823-84.239059c7.408941 26.593882 13.281882 53.729882 17.769412 81.167059l-21.082353 3.403294a693.699765 693.699765 0 0 0-16.143059-80.323765l19.456-4.246588z m-279.491764 36.020706c18.341647 0.271059 35.328 2.048 51.169882 5.210353l-4.216471 20.660706c-13.372235-3.312941-30.539294-5.12-51.591529-5.451294l4.638118-20.419765z m374.332235-132.367059l47.134118 73.487059c7.408941 11.535059 5.451294 20.961882-5.812706 28.370824l-17.257412 11.294117-14.215529-13.071059 16.986352-9.788235c3.373176-2.198588 3.704471-5.270588 1.204706-9.276235l-4.969411-7.710118-57.494589 37.647059 19.034353 29.665882-16.323764 10.721883-59.030589-91.828706 90.744471-59.512471z m-282.051765-66.198588a214.829176 214.829176 0 0 1 205.342118-16.956235l-19.425882 12.739764a195.644235 195.644235 0 0 0-175.344942 20.088471 195.764706 195.764706 0 0 0-88.124235 152.997647l-19.365647 12.830118a214.497882 214.497882 0 0 1 96.918588-181.699765z m290.032941 116.013176l-57.46447 37.677177 6.475294 10.119529 57.494588-37.647059-6.505412-10.149647z m-171.429647 7.408942a235.700706 235.700706 0 0 1 48.399059 7.469176l-4.276706 20.931765c-13.251765-3.824941-29.394824-6.475294-48.670117-7.920941l4.547764-20.48z m155.798589-31.62353l-57.494589 37.647059 6.927059 10.721882 57.464471-37.647058-6.927059-10.721883z m-27.196236-103.303529l9.426824 14.637176-47.796706 31.262118 5.812706 9.035294 40.719059-26.714353 9.185882 14.305882-40.749176 26.684236 6.053647 9.33647 53.007058-34.665411 9.456942 14.607058-122.88 80.414118-9.426824-14.607059 52.434824-34.334117-6.053647-9.336471-38.881883 25.389176-9.185882-14.275764 38.881882-25.419294-5.812706-9.035295-46.441411 30.448942-9.426824-14.607059 46.441412-30.418824-6.716236-10.842353 17.257412-11.294117 6.896941 10.721882 47.796706-31.292235z m-151.491764 86.13647c15.992471 0.752941 30.629647 2.710588 43.941647 5.842824l-4.367059 20.781176c-11.715765-3.433412-26.443294-5.451294-44.363294-6.144l4.818823-20.48z" p-id="23992"></path></symbol><symbol viewBox="0 0 24 24" id="svgtofont-home"><polyline id="primary" points="21 12 12 3 3 12" style="fill: none; stroke: rgb(0, 0, 0); stroke-linecap: round; stroke-linejoin: round; stroke-width: 1.5;"></polyline><path id="primary-2" data-name="primary" d="M19,10V20.3a.77.77,0,0,1-.83.7H14.3V14.1H9.7V21H5.83A.77.77,0,0,1,5,20.3V10" style="fill: none; stroke: rgb(0, 0, 0); stroke-linecap: round; stroke-linejoin: round; stroke-width: 1.5;"></path></symbol><symbol viewBox="0 0 1024 1024" id="svgtofont-jialiao"><defs><style type="text/css">@font-face { font-family: feedback-iconfont; src: url("//at.alicdn.com/t/font_1031158_u69w8yhxdu.woff2?t=1630033759944") format("woff2"), url("//at.alicdn.com/t/font_1031158_u69w8yhxdu.woff?t=1630033759944") format("woff"), url("//at.alicdn.com/t/font_1031158_u69w8yhxdu.ttf?t=1630033759944") format("truetype"); }
</style></defs><path d="M576 64v384h384v128H576v384H448V576H64V448h384V64h128z m-288 608a64 64 0 0 1 64 64V896a64 64 0 0 1-64 64H128a64 64 0 0 1-64-64v-160a64 64 0 0 1 64-64h160z m526.272 10.944a32 32 0 0 1 14.336 14.336l108.224 216.448a32 32 0 0 1-28.608 46.272h-216.448a32 32 0 0 1-28.608-46.272l108.224-216.448a32 32 0 0 1 42.88-14.336zM208 64a144 144 0 1 1 0 288 144 144 0 0 1 0-288zM896 64a64 64 0 0 1 64 64v160a64 64 0 0 1-64 64h-160a64 64 0 0 1-64-64V128a64 64 0 0 1 64-64H896z" p-id="23699"></path></symbol><symbol viewBox="0 0 1024 1024" id="svgtofont-session"><defs><style type="text/css">@font-face { font-family: feedback-iconfont; src: url("//at.alicdn.com/t/font_1031158_u69w8yhxdu.woff2?t=1630033759944") format("woff2"), url("//at.alicdn.com/t/font_1031158_u69w8yhxdu.woff?t=1630033759944") format("woff"), url("//at.alicdn.com/t/font_1031158_u69w8yhxdu.ttf?t=1630033759944") format("truetype"); }
</style></defs><path d="M541.76 311.637L283.947 54.72c-9.856 4.907-19.542 10.048-28.971 15.51-37.973 21.738-73.75 48.597-106.07 80.789-13.973 13.845-26.666 28.373-38.506 43.221-29.12 36.523-52.523 76.096-70.165 117.483 0 0 485.973-2.56 501.525-0.086zM391.723 348.16H27.093c-3.52 10.197-6.634 20.715-9.536 31.296C6.187 421.504 0 465.686 0 511.36c0 19.52 1.216 38.741 3.435 57.643 5.248 46.378 16.853 90.773 33.813 132.416 0 0 341.717-344.171 354.475-353.259zM970.24 282.432c-4.843-9.664-10.005-19.328-15.488-28.821-21.888-37.718-48.768-73.408-81.173-105.622-13.846-13.781-28.374-26.56-43.35-38.378-36.672-28.992-76.33-52.331-117.866-69.867 0 0 2.581 484.139 0 499.563L970.24 282.432zM676.565 390.336V27.072c-10.304-3.477-20.864-6.656-31.445-9.6C602.965 6.208 558.592 0 512.725 0c-19.605 0-38.869 1.216-57.877 3.413-46.485 5.248-91.05 16.854-132.97 33.643 0 0 345.407 340.608 354.687 353.28zM311.147 482.09L53.419 739.009c4.778 9.835 10.048 19.37 15.488 28.885 21.781 37.782 48.746 73.472 81.173 105.707 13.824 13.803 28.373 26.475 43.35 38.379 36.671 29.056 76.245 52.288 117.866 69.802 0-0.021-2.645-484.16-0.15-499.69zM479.744 714.283L737.621 971.2a612.547 612.547 0 0 0 28.992-15.51c37.782-21.695 73.536-48.49 106.006-80.831 13.781-13.76 26.538-28.203 38.485-43.158 29.056-36.544 52.523-75.989 70.101-117.461-0.042 0-485.888 2.645-501.461 0.043zM1020.544 455.19c-5.312-46.315-16.832-90.753-33.77-132.46 0 0-341.782 344.15-354.56 353.345h364.629a553.476 553.476 0 0 0 9.493-31.339c11.435-42.09 17.664-86.144 17.664-131.84 0-19.541-1.259-38.784-3.456-57.707zM347.456 633.6v363.307c10.347 3.498 20.864 6.656 31.424 9.493 42.219 11.456 86.528 17.6 132.395 17.6 19.541 0 38.848-1.216 57.77-3.435 46.55-5.269 91.051-16.725 132.907-33.6 0.064 0-345.301-340.565-354.496-353.365z" p-id="919"></path></symbol><symbol viewBox="0 0 1024 1024" id="svgtofont-weixin"><defs><style type="text/css">@font-face { font-family: feedback-iconfont; src: url("//at.alicdn.com/t/font_1031158_u69w8yhxdu.woff2?t=1630033759944") format("woff2"), url("//at.alicdn.com/t/font_1031158_u69w8yhxdu.woff?t=1630033759944") format("woff"), url("//at.alicdn.com/t/font_1031158_u69w8yhxdu.ttf?t=1630033759944") format("truetype"); }
</style></defs><path d="M1010.816 628.032c0-141.248-141.312-256.256-299.904-256.256-168 0-300.288 115.136-300.288 256.192 0 141.44 132.288 256.256 300.288 256.256 35.2 0 70.656-8.96 105.984-17.728l96.832 52.992-26.624-88.192c70.912-53.184 123.712-123.712 123.712-203.328zM617.984 588.8a40 40 0 1 1 0-80 40 40 0 0 1 0 80z m194.304-0.32a40 40 0 1 1 0-80 40 40 0 0 1 0 80z" p-id="23845"></path><path d="M366.272 106.88C172.224 106.88 13.184 239.168 13.184 407.168c0 97.024 52.928 176.64 141.312 238.464l-35.328 106.176 123.456-61.888c44.16 8.704 79.552 17.664 123.648 17.664 11.136 0 22.144-0.512 33.024-1.408a262.784 262.784 0 0 1-10.88-73.984c0-154.24 132.48-279.488 300.16-279.488 11.52 0 22.848 0.768 34.048 2.112-30.656-142.208-182.72-247.936-356.352-247.936zM247.68 349.184a48 48 0 1 1 0-96 48 48 0 0 1 0 96z m246.592 0a48 48 0 1 1 0-96 48 48 0 0 1 0 96z" p-id="23846"></path></symbol></svg>