<svg t="1657185277098" class="icon" viewBox="0 0 1024 1024" version="1.1" xmlns="http://www.w3.org/2000/svg" p-id="23991" xmlns:xlink="http://www.w3.org/1999/xlink" width="160" height="160"><defs><style type="text/css">@font-face { font-family: feedback-iconfont; src: url("//at.alicdn.com/t/font_1031158_u69w8yhxdu.woff2?t=1630033759944") format("woff2"), url("//at.alicdn.com/t/font_1031158_u69w8yhxdu.woff?t=1630033759944") format("woff"), url("//at.alicdn.com/t/font_1031158_u69w8yhxdu.ttf?t=1630033759944") format("truetype"); }
</style></defs><path d="M903.529412 0a120.470588 120.470588 0 0 1 120.470588 120.470588v783.058824a120.470588 120.470588 0 0 1-120.470588 120.470588H120.470588a120.470588 120.470588 0 0 1-120.470588-120.470588V120.470588a120.470588 120.470588 0 0 1 120.470588-120.470588h783.058824z m-64.662588 321.987765C725.624471 149.744941 494.230588 101.797647 321.897412 215.04 149.684706 328.282353 101.737412 559.646118 214.949647 731.979294c113.242353 172.212706 344.636235 220.16 516.939294 106.947765 172.303059-113.242353 220.190118-344.636235 106.977883-516.939294zM330.089412 227.237647c165.436235-108.724706 387.824941-62.735059 496.76047 102.821647 108.815059 165.526588 62.735059 387.915294-102.821647 496.760471-165.526588 108.845176-388.005647 62.765176-496.76047-102.79153-108.815059-165.526588-62.735059-388.035765 102.821647-496.790588z m482.394353 112.097882c-103.604706-157.696-315.482353-201.487059-473.178353-97.882353-157.696 103.604706-201.517176 315.482353-97.882353 473.208471 103.604706 157.696 315.452235 201.487059 473.148235 97.882353 157.696-103.604706 201.607529-315.392 97.882353-473.208471z m-70.174118 185.705412a214.979765 214.979765 0 0 1-96.978823 181.850353 214.829176 214.829176 0 0 1-205.372236 16.956235l19.456-12.890353c56.289882 20.690824 121.374118 15.36 175.344941-20.08847A195.764706 195.764706 0 0 0 722.823529 537.871059z m-332.528941 103.996235c6.896941 28.069647 12.197647 56.621176 15.962353 85.865412l-21.202824 3.493647a674.454588 674.454588 0 0 0-14.034823-85.263059l19.275294-4.096z m7.378823-151.853176l22.889412 35.719529 50.597647-33.129411 10.932706 17.046588-50.597647 33.159529 22.829177 35.538824 40.327529-26.443294 54.603294 85.11247-17.317647 11.324236-4.547765-7.168-62.283294 40.809411 4.517647 7.168-17.468235 11.444706-54.633412-85.082353 39.032471-25.6-22.799059-35.538823-50.416941 33.008941-10.842353-17.106824 50.416941-32.978823-22.889412-35.71953 17.648941-11.565176z m90.654118 90.292706l-62.283294 40.809412 27.949176 43.550117 62.283295-40.809411-27.949177-43.550118z m-167.574588 26.533647c19.456 0.602353 36.532706 2.56 51.350588 5.872941l-4.306823 20.389647c-13.944471-3.644235-31.111529-5.692235-51.410824-6.023529l4.367059-20.239059z m255.698823-84.239059c7.408941 26.593882 13.281882 53.729882 17.769412 81.167059l-21.082353 3.403294a693.699765 693.699765 0 0 0-16.143059-80.323765l19.456-4.246588z m-279.491764 36.020706c18.341647 0.271059 35.328 2.048 51.169882 5.210353l-4.216471 20.660706c-13.372235-3.312941-30.539294-5.12-51.591529-5.451294l4.638118-20.419765z m374.332235-132.367059l47.134118 73.487059c7.408941 11.535059 5.451294 20.961882-5.812706 28.370824l-17.257412 11.294117-14.215529-13.071059 16.986352-9.788235c3.373176-2.198588 3.704471-5.270588 1.204706-9.276235l-4.969411-7.710118-57.494589 37.647059 19.034353 29.665882-16.323764 10.721883-59.030589-91.828706 90.744471-59.512471z m-282.051765-66.198588a214.829176 214.829176 0 0 1 205.342118-16.956235l-19.425882 12.739764a195.644235 195.644235 0 0 0-175.344942 20.088471 195.764706 195.764706 0 0 0-88.124235 152.997647l-19.365647 12.830118a214.497882 214.497882 0 0 1 96.918588-181.699765z m290.032941 116.013176l-57.46447 37.677177 6.475294 10.119529 57.494588-37.647059-6.505412-10.149647z m-171.429647 7.408942a235.700706 235.700706 0 0 1 48.399059 7.469176l-4.276706 20.931765c-13.251765-3.824941-29.394824-6.475294-48.670117-7.920941l4.547764-20.48z m155.798589-31.62353l-57.494589 37.647059 6.927059 10.721882 57.464471-37.647058-6.927059-10.721883z m-27.196236-103.303529l9.426824 14.637176-47.796706 31.262118 5.812706 9.035294 40.719059-26.714353 9.185882 14.305882-40.749176 26.684236 6.053647 9.33647 53.007058-34.665411 9.456942 14.607058-122.88 80.414118-9.426824-14.607059 52.434824-34.334117-6.053647-9.336471-38.881883 25.389176-9.185882-14.275764 38.881882-25.419294-5.812706-9.035295-46.441411 30.448942-9.426824-14.607059 46.441412-30.418824-6.716236-10.842353 17.257412-11.294117 6.896941 10.721882 47.796706-31.292235z m-151.491764 86.13647c15.992471 0.752941 30.629647 2.710588 43.941647 5.842824l-4.367059 20.781176c-11.715765-3.433412-26.443294-5.451294-44.363294-6.144l4.818823-20.48z" p-id="23992"></path></svg>