<svg t="1657185262253" class="icon" viewBox="0 0 1024 1024" version="1.1" xmlns="http://www.w3.org/2000/svg" p-id="23698" xmlns:xlink="http://www.w3.org/1999/xlink" width="160" height="160"><defs><style type="text/css">@font-face { font-family: feedback-iconfont; src: url("//at.alicdn.com/t/font_1031158_u69w8yhxdu.woff2?t=1630033759944") format("woff2"), url("//at.alicdn.com/t/font_1031158_u69w8yhxdu.woff?t=1630033759944") format("woff"), url("//at.alicdn.com/t/font_1031158_u69w8yhxdu.ttf?t=1630033759944") format("truetype"); }
</style></defs><path d="M576 64v384h384v128H576v384H448V576H64V448h384V64h128z m-288 608a64 64 0 0 1 64 64V896a64 64 0 0 1-64 64H128a64 64 0 0 1-64-64v-160a64 64 0 0 1 64-64h160z m526.272 10.944a32 32 0 0 1 14.336 14.336l108.224 216.448a32 32 0 0 1-28.608 46.272h-216.448a32 32 0 0 1-28.608-46.272l108.224-216.448a32 32 0 0 1 42.88-14.336zM208 64a144 144 0 1 1 0 288 144 144 0 0 1 0-288zM896 64a64 64 0 0 1 64 64v160a64 64 0 0 1-64 64h-160a64 64 0 0 1-64-64V128a64 64 0 0 1 64-64H896z" p-id="23699"></path></svg>